<?xml version="1.0" standalone="no"?>
<!DOCTYPE svg PUBLIC "-//W3C//DTD SVG 20010904//EN"
 "http://www.w3.org/TR/2001/REC-SVG-20010904/DTD/svg10.dtd">
<svg version="1.0" xmlns="http://www.w3.org/2000/svg"
 width="250.000000pt" height="250.000000pt" viewBox="0 0 250.000000 250.000000"
 preserveAspectRatio="xMidYMid meet">
<metadata>
Created by potrace 1.14, written by Peter Selinger 2001-2017
</metadata>
<g transform="translate(0.000000,250.000000) scale(0.100000,-0.100000)"
fill="#000000" stroke="none">
<path d="M1090 2333 c-484 -78 -855 -443 -930 -915 -20 -126 -8 -362 24 -473
56 -195 187 -405 329 -528 70 -61 136 -107 153 -107 17 0 566 887 562 908 -3
16 -29 17 -306 22 -319 5 -329 7 -319 51 2 8 144 241 316 517 171 276 311 508
311 517 0 12 -12 15 -57 14 -32 -1 -69 -4 -83 -6z"/>
<path d="M1794 2083 c-26 -43 -151 -242 -277 -441 -127 -203 -226 -370 -223
-378 4 -12 56 -14 293 -14 245 0 292 -2 311 -16 12 -8 22 -21 22 -29 0 -7
-144 -243 -320 -524 -176 -280 -320 -517 -320 -525 0 -21 49 -21 161 -1 421
73 760 384 876 802 25 90 28 113 28 278 0 157 -3 191 -24 269 -64 243 -209
463 -403 612 -31 24 -61 44 -66 44 -6 0 -32 -35 -58 -77z"/>
</g>
</svg>
