<?xml version="1.0" encoding="utf-8"?>
<!-- Generator: Adobe Illustrator 26.1.0, SVG Export Plug-In . SVG Version: 6.00 Build 0)  -->
<svg version="1.1" id="Layer_1" xmlns="http://www.w3.org/2000/svg" xmlns:xlink="http://www.w3.org/1999/xlink" x="0px" y="0px"
	 viewBox="0 0 900.7 197.1" style="enable-background:new 0 0 900.7 197.1;" xml:space="preserve">
<style type="text/css">
	.st0{fill:#FFFFFF;}
	.st1{fill:#00D0FF;}
	.st2{fill:#0844D2;}
	.st3{fill:url(#SVGID_1_);}
	.st4{fill:url(#SVGID_00000129908096957322602490000000470589146912512692_);}
	.st5{fill:url(#SVGID_00000144328575757940525320000009711585829887708809_);}
	.st6{fill:url(#SVGID_00000038380925067250944760000007552876658455107212_);}
	.st7{fill:url(#SVGID_00000150798637229231572290000011421735657004073116_);}
	.st8{fill:url(#SVGID_00000088121564117027875290000008248761802312624556_);}
	.st9{fill:url(#SVGID_00000067944834199756086190000006808999523892195745_);}
	.st10{fill:url(#SVGID_00000021837281400370847120000009347420108986956419_);}
	.st11{fill:url(#SVGID_00000000924731783011483930000006130272907823646874_);}
	.st12{fill:url(#SVGID_00000045589665244561253220000005334769970639505076_);}
	.st13{fill:url(#SVGID_00000171706664150745988470000015165061721246889607_);}
</style>
<g fill="currentColor">
	<g>
		<g>
			<g>
				<g>
					<polygon points="275.7,55.2 214.4,55.2 211.9,69.4 233.9,69.4 222.6,134.1 239.7,134.1 251.1,69.4 273.3,69.4 					"/>
				</g>
				<g>
					<path d="M311.7,75.9c-4.3,0-8.3,0.9-11.8,2.8c-1.8,1-3.5,2.1-5.1,3.4l4.7-26.9h-17.2l-13.8,78.9h17.2l5.1-29h0
						c0.9-4.5,2.7-8.1,5.3-10.6c2.7-2.5,5.6-3.7,9-3.7c3.4,0,5.7,0.9,6.8,2.9c1.2,2.1,1.5,5.3,0.8,9.5l-5.5,30.9h17.2l5.6-31.6
						c1.4-8.5,0.6-15.1-2.6-19.6C324.1,78.3,318.9,75.9,311.7,75.9z"/>
				</g>
				<g>
					<path d="M379.2,77.2l-5.1,29.4c-0.8,4.3-2.6,7.7-5.2,10.2c-2.7,2.4-5.7,3.6-9.2,3.6c-5.4,0-7.9-2.5-7.9-8.1c0-0.6,0-1.2,0.1-2
						c0.1-0.7,0.2-1.5,0.3-2.3l5.4-30.9h-17l-5.6,31.6c-0.4,2.6-0.7,5-0.7,7.1c0,6.2,1.7,11,5,14.4c3.3,3.4,8.1,5.1,14.1,5.1
						c4.4,0,8.5-1,12.1-3c2.1-1.2,4.1-2.6,5.8-4.2l-0.3,5.9h15.3l10-56.9H379.2z"/>
				</g>
				<g>
					<path d="M436,75.9c-4.4,0-8.5,1-12.1,3c-2.2,1.2-4.1,2.6-5.8,4.3l0.2-5.9h-15.3l-10,56.9h17.2l5.2-29.4
						c0.8-4.3,2.6-7.7,5.2-10.2c2.7-2.4,5.6-3.6,9-3.6c5.5,0,8,2.5,8,8.1c0,0.6-0.1,1.2-0.1,1.9c-0.1,0.8-0.2,1.6-0.3,2.4l-5.5,30.9
						h17.2l5.6-31.6c0.4-2.6,0.7-5,0.7-7.1c0-6.2-1.7-11-5.1-14.4C446.7,77.6,441.9,75.9,436,75.9z"/>
				</g>
				<g>
					<path d="M512,55.2l-4.7,26.9c-1.2-1.3-2.7-2.5-4.4-3.5c-3-1.8-6.9-2.7-11.6-2.7c-5.9,0-11.3,1.5-16.1,4.5
						c-4.8,3-8.7,7.1-11.5,12.2c-2.8,5.1-4.2,11-4.2,17.3c0,4.7,0.9,9,2.8,12.8c1.8,3.9,4.5,7,7.9,9.2c3.4,2.3,7.6,3.4,12.4,3.4
						c4.7,0,8.8-1,12.1-2.9c1.9-1.1,3.7-2.4,5.2-3.8l0.2,5.4h15.3l13.9-78.9H512z M501.6,111.2c-1.4,2.7-3.3,4.9-5.7,6.5
						c-2.4,1.6-5,2.4-8.1,2.4c-3.4,0-6-1.1-7.9-3.2c-2-2.3-2.9-5-2.9-8.4c0-3.2,0.7-6.2,2.1-8.7c1.4-2.5,3.3-4.6,5.6-6.1
						c2.4-1.5,5.1-2.2,8.2-2.2c3.4,0,6.1,1,8,3c1.9,2,2.9,4.6,2.9,7.9C503.7,105.4,503,108.4,501.6,111.2z"/>
				</g>
				<g>
					<path d="M581.5,87.1c-2-3.5-4.8-6.2-8.5-8.2c-3.6-2-8-3-13-3c-5.1,0-9.8,0.9-14.1,2.8c-4.3,1.8-8,4.4-11.1,7.6
						c-3.1,3.2-5.5,7-7.2,11.2c-1.7,4.2-2.5,8.8-2.5,13.5c0,7.4,2.3,13.4,6.8,17.8c4.5,4.4,10.6,6.6,18.1,6.6
						c4.5,0,8.7-0.8,12.6-2.5c3.9-1.7,7.3-3.9,10.3-6.8c3-2.9,5.4-6.1,7.1-9.7l0.3-0.7h-17.9c-1.1,1.4-2.5,2.5-4,3.5
						c-1.9,1.1-4,1.6-6.5,1.6c-3,0-5.4-0.9-7.3-2.6c-1.8-1.7-2.7-4.1-2.7-7.3v-0.2h40.3l0.4-1.1c0.5-1.4,0.9-3.1,1.2-5
						c0.3-1.9,0.5-3.8,0.5-5.6C584.5,94.5,583.5,90.5,581.5,87.1z M544.8,98.7c1.2-2.5,2.9-4.4,4.9-5.7c2.7-1.7,5.5-2.6,8.5-2.6
						c2.9,0,5.2,0.8,6.9,2.4c1.6,1.4,2.4,3.4,2.4,5.9H544.8z"/>
				</g>
				<g>
					<path d="M616.7,79.1c-2.5,1.3-4.7,3-6.7,4.9l0.3-6.8h-15.5l-10,56.9H602l4.8-26.7c0.9-5.2,2.9-8.8,5.8-10.6
						c3-1.9,6.7-2.9,11-2.9h5.2l3.2-17.9h-2C625.1,75.9,620.6,77,616.7,79.1z"/>
				</g>
				<g>
					<path d="M665.1,73.8c3.9-2.7,8.4-4.1,13.3-4.1c4.5,0,8,1,10.4,3.1c2.3,2,3.5,4.8,3.6,8.5l0.1,1.6H711l0-1.7
						c-0.1-8.6-2.8-15.4-8.2-20.2c-5.3-4.8-12.8-7.2-22.3-7.2c-6.5,0-12.7,1.3-18.2,3.8c-5.5,2.5-10.5,6-14.6,10.5
						c-4.1,4.5-7.4,9.8-9.7,15.8c-2.3,6-3.5,12.5-3.5,19.5c0,6.3,1.3,11.9,3.8,16.6c2.5,4.8,6.3,8.6,11.1,11.3
						c4.8,2.7,10.7,4,17.4,4c9.3,0,17.5-2.3,24.3-6.8c6.9-4.5,11.9-11,14.8-19.1l0.8-2.2h-18.8l-0.4,1c-1.5,3.6-3.8,6.5-6.9,8.4
						c-3.1,2-7,3-11.6,3c-5.5,0-9.6-1.5-12.6-4.6c-3-3.1-4.5-7.5-4.5-13.2c0-6.1,1.2-11.7,3.5-16.6C658,80.5,661.1,76.6,665.1,73.8z
						"/>
				</g>
				<g>
					<path d="M759,79.2c-3.8-2.1-8.3-3.2-13.3-3.2c-4.7,0-9.1,0.9-13.2,2.6c-4.1,1.7-7.7,4.1-10.7,7.2c-3.1,3.1-5.5,6.7-7.2,10.8
						c-1.7,4.1-2.6,8.6-2.6,13.3c0,4.9,1.1,9.3,3.2,13.1c2.1,3.8,5.1,6.9,8.9,9.1c3.8,2.2,8.2,3.4,13.2,3.4c4.7,0,9.2-0.9,13.3-2.6
						c4.1-1.7,7.7-4.2,10.8-7.3c3-3.1,5.5-6.7,7.2-10.8c1.7-4.1,2.6-8.6,2.6-13.4c0-4.9-1.1-9.4-3.2-13.1
						C765.8,84.3,762.8,81.3,759,79.2z M739.1,120.1c-2.7,0-4.9-0.9-6.8-2.8c-1.9-1.9-2.8-4.5-2.8-8c0-3.5,0.7-6.6,2-9.4
						c1.3-2.7,3.1-4.9,5.3-6.4c2.2-1.5,4.6-2.3,7.3-2.3c2.7,0,4.9,0.9,6.8,2.8c1.9,1.9,2.8,4.5,2.8,8c0,3.5-0.7,6.6-2,9.4
						c-1.3,2.7-3.1,4.9-5.3,6.4C744.3,119.4,741.9,120.1,739.1,120.1z"/>
				</g>
				<g>
					<path d="M816.3,75.9c-4.8,0-9.2,1.1-13.2,3.2c-2.5,1.3-4.7,3-6.7,4.9l0.3-6.8h-15.5l-10,56.9h17.2l4.8-26.7
						c0.9-5.2,2.9-8.8,5.8-10.6c3-1.9,6.7-2.9,11-2.9h5.2l3.2-17.9H816.3z"/>
				</g>
			</g>
			<g>
				<path d="M872.7,87.1c-2-3.5-4.8-6.2-8.5-8.2c-3.6-2-8-3-13-3c-5.1,0-9.8,0.9-14.1,2.8c-4.3,1.8-8,4.4-11.1,7.6
					c-3.1,3.2-5.5,7-7.2,11.2c-1.7,4.2-2.5,8.8-2.5,13.5c0,7.4,2.3,13.4,6.8,17.8c4.5,4.4,10.6,6.6,18.1,6.6c4.5,0,8.7-0.8,12.6-2.5
					c3.9-1.7,7.3-3.9,10.3-6.8c3-2.9,5.4-6.1,7.1-9.7l0.3-0.7h-17.9c-1.1,1.4-2.5,2.5-4,3.5c-1.9,1.1-4,1.6-6.5,1.6
					c-3,0-5.4-0.9-7.3-2.6c-1.8-1.7-2.7-4.1-2.7-7.3v-0.2h40.3l0.4-1.1c0.5-1.4,0.9-3.1,1.2-5c0.3-1.9,0.5-3.8,0.5-5.6
					C875.7,94.5,874.7,90.5,872.7,87.1z M836,98.7c1.2-2.5,2.9-4.4,4.9-5.7c2.7-1.7,5.5-2.6,8.5-2.6c2.9,0,5.2,0.8,6.9,2.4
					c1.6,1.4,2.4,3.4,2.4,5.9H836z"/>
			</g>
		</g>
		<g>
			<path d="M878.1,75.5h-2.4v-0.9h5.8v0.9h-2.4v7h-1V75.5z"/>
			<path d="M889,79.1c-0.1-1.1-0.1-2.4-0.1-3.4h0c-0.3,0.9-0.6,1.9-1,3l-1.4,3.8h-0.8l-1.3-3.7c-0.4-1.1-0.7-2.1-0.9-3.1h0
				c0,1-0.1,2.3-0.2,3.5l-0.2,3.4h-1l0.5-7.9h1.3l1.3,3.8c0.3,1,0.6,1.8,0.8,2.6h0c0.2-0.8,0.5-1.7,0.8-2.6l1.4-3.8h1.3l0.5,7.9h-1
				L889,79.1z"/>
		</g>
	</g>
</g>
<linearGradient id="SVGID_1_" gradientUnits="userSpaceOnUse" x1="83.4805" y1="51.6889" x2="111.5502" y2="172.2844">
	<stop  offset="0.1799" style="stop-color:#00FFD5"/>
	<stop  offset="0.2324" style="stop-color:#00F8D5"/>
	<stop  offset="0.3098" style="stop-color:#00E4D5"/>
	<stop  offset="0.4026" style="stop-color:#00C3D5"/>
	<stop  offset="0.5073" style="stop-color:#0096D5"/>
	<stop  offset="0.622" style="stop-color:#005CD5"/>
	<stop  offset="0.7432" style="stop-color:#0016D5"/>
	<stop  offset="0.7796" style="stop-color:#0000D5"/>
</linearGradient>
<path class="st3" d="M47.9,93.7c-1.5,2.4,0.2,5.4,3,5.4h40.5c1.3,0,2.2,1.5,1.4,2.6l-39.7,63.5c-0.4,0.7-1.3,0.9-2,0.4
	c-22-14.2-36.6-39-36.6-67.1c0-43.3,34.4-78.5,77.3-79.8c1.1,0,1.8,1.2,1.2,2.1L47.9,93.7z M139.1,32.4c-0.7-0.4-1.6-0.2-2,0.4
	L98,95.4c-0.7,1.1,0.1,2.6,1.4,2.6h40.5c2.8,0,4.5,3.1,3,5.4l-45.8,73.2c-0.5,0.8,0.1,1.7,1,1.7c42.4-2,76.1-36.9,76.1-79.8
	C174.3,71,160.3,46.8,139.1,32.4z"/>
</svg>
