<?xml version="1.0" standalone="yes"?>
<svg xmlns="http://www.w3.org/2000/svg" width="657" height="144">
<path style="fill:#010101; stroke:none;" d="M0 0L0 144L657 144L657 0L0 0z"/>
<path style="fill:#ffffff; stroke:none;" d="M40 121C48.2585 105.486 65.8695 88.3471 69 71L46 71C43.7125 70.9953 39.4131 71.6159 37.8781 69.3966C35.4513 65.8882 43.2189 56.9198 45.0502 54L62.4236 26C65.1943 21.5514 68.8915 17.4134 68 12C50.6924 15.2151 35.1305 19.2306 23.6798 34C5.13646 57.9178 5.27882 109.913 40 121M69 70L103 72C93.0921 90.612 74.952 108.773 69 129C102.766 128.978 126.384 100.609 125.996 68C125.836 54.5302 120.237 40.7383 110.96 31C108.353 28.2634 104.28 22.8568 100.104 22.7515C95.9747 22.6474 92.9986 30.0851 91.1921 33C83.8935 44.7772 73.9015 57.0495 69 70M516 78C511.974 78 506.104 76.921 502.375 78.6034C497.222 80.928 495.513 86.3235 489 86.7716C455.136 89.1015 495.954 26.372 505 61L519 61C518.834 41.1601 499.71 34.6461 483 41.4753C472.649 45.7056 465.165 56.0909 463.286 67C461.812 75.5603 461.88 84.664 467.789 91.6991C482.105 108.745 510.646 96.5857 516 78M156 40L154 51L170 51L162 98L174.4 96.9722L177.75 85L183 51L200 51L202 40L156 40M205 40L195 98L209 98C210.008 90.067 210.504 78.8369 214.995 72.044C217.513 68.2336 223.794 64.8085 226.806 70.1481C230.481 76.6618 224.152 90.6375 224 98L237 98C239.603 84.5782 249.756 52.222 225 55.186C221.842 55.5641 218.94 56.8677 216 58L219 40L205 40M373 40L370 59C338.798 37.7612 318.991 99.817 353 98.9838C357.044 98.8847 360.313 97.5019 364 96C366.699 99.0888 375.079 99.324 376.772 94.8519C382.485 79.7549 385.667 56.1114 386 40L373 40M637 54L639 61L650 61L649 54L637 54M305 59C303.987 54.2738 296.995 56 293 56L286 98L300 98C300.598 90.4333 301.242 78.3618 305.703 72.044C307.795 69.0812 312.051 65.899 315.771 68.0432C322.221 71.7613 315.521 92.1195 314 98L328 98C329.817 83.927 340.489 50.6073 314 55.3295C310.749 55.909 307.905 57.516 305 59M424 84C415.116 84 399.708 91.3398 396 81L412 81C415.433 81 421.513 82.137 424.436 79.9722C431.213 74.9526 425.062 61.6898 419.907 58.1335C400.989 45.084 377.573 68.1345 383.804 88C389.962 107.633 418.212 98.9395 424 84M446 59C444.96 54.1472 437.102 56 433 56L426 98L440 98C441.068 84.489 442.567 69.1379 459 69L461 55L446 59M539 55.4676C511.373 60.6778 513.38 104.052 544 98.6713C570.304 94.0488 568.518 49.9007 539 55.4676M581 60L582 56L569 56L562 98L576 98C576.6 84.055 578.467 69.1387 595 69L597 55L581 60M636 83C626.719 84.173 613.122 90.6274 608 81L638 81C639.079 75.1898 640.061 68.3922 636.911 63.0154C625.797 44.0473 597.667 59.0376 594.468 76C589.281 103.502 631.303 107.278 636 83M248 56C245.192 70.9041 235.424 101.39 261 98.8951C264.217 98.5813 267.045 97.204 270 96C272.699 99.0888 281.079 99.324 282.772 94.8519C286.88 83.9964 288.904 67.5657 289 56L276 56C275.032 63.6217 274.679 75.5138 270.272 81.956C267.597 85.8672 261.035 89.5753 258.028 83.8627C254.598 77.3467 260.686 63.3054 261 56L248 56z"/>
<path style="fill:#010101; stroke:none;" d="M445 59L446 60L445 59M398 72L413 72C410.552 63.8706 402.112 66.8086 398 72M357.001 67.588C346.564 70.2693 345.125 89.3518 357.996 86.6011C369.01 84.2474 369.763 64.309 357.001 67.588M540.005 67.7577C531.078 70.9477 530.148 89.9791 541.96 86.4815C551.476 83.6637 551.294 63.7234 540.005 67.7577M611 72L625 72C622.381 65.1547 614.261 66.1181 611 72z"/>
</svg>
